<svg id="Camada_1" data-name="Camada 1" xmlns="http://www.w3.org/2000/svg" viewBox="0 0 24 24"><defs><style>.cls-1{fill:#f0f0f0;}.cls-2{fill:#d80027;}.cls-3{fill:#0052b4;}</style></defs><ellipse id="Elipse_28" data-name="Elipse 28" class="cls-1" cx="12.14" cy="12" rx="11.63" ry="12"/><g id="Grupo_2525" data-name="Grupo 2525"><path id="Caminho_2406" data-name="Caminho 2406" class="cls-2" d="M11.48,11.93H23.93a12.07,12.07,0,0,0-.41-3.11h-12Z"/><path id="Caminho_2407" data-name="Caminho 2407" class="cls-2" d="M11.48,5.71h10.7a12.06,12.06,0,0,0-2.75-3.12H11.48Z"/><path id="Caminho_2408" data-name="Caminho 2408" class="cls-2" d="M12,23.86a11.86,11.86,0,0,0,7.43-2.59H4.57A11.86,11.86,0,0,0,12,23.86Z"/><path id="Caminho_2409" data-name="Caminho 2409" class="cls-2" d="M1.82,18.16H22.18A11.82,11.82,0,0,0,23.52,15H.48A11.82,11.82,0,0,0,1.82,18.16Z"/></g><path id="Caminho_2410" data-name="Caminho 2410" class="cls-3" d="M5.6,1.86H6.68l-1,.74.38,1.19-1-.74L4,3.79l.33-1A12.14,12.14,0,0,0,2.05,5.34H2.4l-.64.47c-.1.16-.2.33-.29.51l.31.94L1.2,6.85c-.14.3-.27.61-.39.92l.34,1.05H2.4l-1,.73.39,1.19L.77,10l-.61.44a12.29,12.29,0,0,0-.09,1.49H12V0A11.88,11.88,0,0,0,5.6,1.86Zm.46,8.88-1-.74-1,.74.38-1.19-1-.73H4.66l.39-1.19.38,1.19H6.68l-1,.73ZM5.67,6.07l.38,1.19-1-.73L4,7.26l.38-1.19-1-.73H4.66l.39-1.19.38,1.19H6.68Zm4.66,4.67-1-.74-1,.74L8.7,9.55l-1-.73H8.94l.39-1.19.38,1.19H11l-1,.73ZM10,6.07l.39,1.19-1-.73-1,.73L8.7,6.07l-1-.73H8.94l.39-1.19.38,1.19H11ZM10,2.6l.39,1.19-1-.74-1,.74L8.7,2.6l-1-.74H8.94L9.33.67l.38,1.19H11Z"/></svg>